<svg width="3781" height="1024" viewBox="0 0 3781 1024" fill="none" xmlns="http://www.w3.org/2000/svg">
<path d="M1355.84 727.594H1483.59C1521.82 727.594 1549.65 719.882 1567.09 704.457C1584.52 689.032 1593.24 664.554 1593.24 631.022C1593.24 600.843 1583.52 577.706 1564.07 561.61C1545.29 544.844 1518.8 536.461 1484.6 536.461H1355.84V727.594ZM1355.84 469.061H1487.62C1514.44 469.061 1535.23 461.684 1549.99 446.93C1565.41 432.176 1573.12 411.386 1573.12 384.56C1573.12 331.579 1542.27 305.089 1480.57 305.089H1355.84V469.061ZM1563.06 502.258C1595.25 509.635 1621.41 525.731 1641.53 550.544C1662.32 575.358 1672.71 604.531 1672.71 638.063C1672.71 684.338 1658.97 721.223 1631.47 748.72C1600.62 780.24 1554.68 796 1493.65 796H1287.43C1282.06 796 1279.38 792.982 1279.38 786.946V245.737C1279.38 239.701 1282.06 236.683 1287.43 236.683H1476.55C1527.52 236.683 1567.76 247.414 1597.27 268.874C1631.47 293.688 1648.57 330.573 1648.57 379.53C1648.57 438.547 1620.07 479.456 1563.06 502.258ZM1918.11 806.06C1867.14 806.06 1827.57 791.976 1799.4 763.809C1768.55 732.289 1753.13 685.344 1753.13 622.974V434.858C1753.13 428.823 1755.81 425.805 1761.18 425.805H1766.21C1807.12 425.805 1827.57 448.942 1827.57 495.216V631.022C1827.57 665.225 1835.28 691.38 1850.71 709.487C1866.8 727.594 1889.27 736.648 1918.11 736.648C1978.46 736.648 2008.64 702.445 2008.64 634.04V434.858C2008.64 428.823 2011.33 425.805 2016.69 425.805H2021.72C2063.3 425.805 2084.09 448.942 2084.09 495.216V628.004C2084.09 680.314 2072.02 721.894 2047.88 752.743C2019.04 788.288 1975.78 806.06 1918.11 806.06ZM2193.52 796C2188.16 796 2185.47 792.982 2185.47 786.946V434.858C2185.47 428.823 2188.16 425.805 2193.52 425.805H2198.55C2240.13 425.805 2260.92 448.942 2260.92 495.216V786.946C2260.92 792.982 2258.24 796 2252.87 796H2193.52ZM2178.43 326.214C2178.43 313.472 2182.79 302.742 2191.51 294.023C2200.23 284.634 2210.96 279.94 2223.7 279.94C2236.44 279.94 2246.84 284.634 2254.89 294.023C2263.6 302.742 2267.96 313.472 2267.96 326.214C2267.96 338.286 2263.6 349.016 2254.89 358.405C2246.17 367.123 2235.77 371.483 2223.7 371.483C2210.96 371.483 2200.23 367.123 2191.51 358.405C2182.79 349.687 2178.43 338.956 2178.43 326.214ZM2458.78 805.054C2396.41 805.054 2365.23 766.492 2365.23 689.368V245.737C2365.23 239.701 2367.91 236.683 2373.27 236.683H2378.3C2419.21 236.683 2439.67 259.82 2439.67 306.095V684.338C2439.67 719.211 2452.75 736.648 2478.9 736.648C2496.34 736.648 2512.43 728.6 2527.19 712.505C2529.87 708.481 2533.22 706.469 2537.25 706.469C2543.28 706.469 2546.3 710.828 2546.3 719.547C2546.3 743.69 2537.92 764.144 2521.15 780.911C2504.39 797.006 2483.6 805.054 2458.78 805.054ZM2878.74 474.091V245.737C2878.74 239.701 2881.42 236.683 2886.79 236.683H2891.82C2933.4 236.683 2954.19 259.82 2954.19 306.095V786.946C2954.19 792.982 2951.51 796 2946.14 796H2886.79C2881.42 796 2878.74 792.982 2878.74 786.946V743.69C2851.24 784.599 2810.34 805.054 2756.01 805.054C2706.39 805.054 2665.81 788.288 2634.29 754.755C2600.09 717.87 2582.99 669.919 2582.99 610.902C2582.99 558.592 2597.07 514.665 2625.24 479.121C2658.77 437.541 2704.04 416.751 2761.04 416.751C2814.02 416.751 2853.26 435.864 2878.74 474.091ZM2767.08 734.636C2802.62 734.636 2830.12 723.906 2849.57 702.445C2869.02 680.314 2878.74 649.8 2878.74 610.902C2878.74 569.322 2868.01 537.802 2846.55 516.342C2827.1 497.564 2801.62 488.175 2770.1 488.175C2741.26 488.175 2717.12 496.893 2697.67 514.33C2672.85 537.132 2660.45 569.322 2660.45 610.902C2660.45 647.788 2670.17 677.631 2689.62 700.433C2709.07 723.235 2734.89 734.636 2767.08 734.636ZM3118.54 638.063C3125.91 705.798 3166.82 739.666 3241.27 739.666C3282.17 739.666 3320.07 727.259 3354.94 702.445C3356.28 701.775 3357.96 700.433 3359.97 698.421C3363.99 695.739 3367.01 694.398 3369.02 694.398C3375.73 694.398 3379.08 699.092 3379.08 708.481C3379.08 730.612 3368.35 750.732 3346.89 768.839C3318.72 792.982 3280.5 805.054 3232.21 805.054C3183.25 805.054 3142.01 791.641 3108.48 764.815C3065.56 729.942 3044.1 678.637 3044.1 610.902C3044.1 557.922 3058.18 513.994 3086.35 479.121C3119.88 437.541 3164.48 416.751 3220.14 416.751C3271.78 416.751 3312.02 432.176 3340.86 463.025C3370.36 493.875 3385.12 535.12 3385.12 586.759C3385.12 600.172 3384.45 613.25 3383.11 625.992C3381.77 634.04 3376.74 638.063 3368.02 638.063H3118.54ZM3120.55 580.723H3310.68C3312.02 550.544 3304.64 526.737 3288.55 509.3C3272.45 491.863 3249.31 483.145 3219.13 483.145C3190.97 483.145 3168.17 491.863 3150.73 509.3C3133.29 526.066 3123.23 549.874 3120.55 580.723ZM3601.78 713.511L3690.3 436.87C3692.99 429.493 3698.35 425.805 3706.4 425.805H3761.73C3766.42 425.805 3768.1 428.487 3766.76 433.852L3644.03 787.952C3642.02 793.317 3638.66 796 3633.97 796H3569.59C3564.22 796 3560.2 793.317 3557.52 787.952L3434.79 433.852C3432.78 428.487 3434.45 425.805 3439.82 425.805H3455.91C3476.7 425.805 3492.46 430.499 3503.19 439.888C3513.92 448.607 3522.98 464.702 3530.36 488.175L3601.78 713.511Z" fill="white"/>
<path fill-rule="evenodd" clip-rule="evenodd" d="M0 806.471V221.368L383.42 0L766.84 221.368V405.319L596.185 503.847L766.84 602.375V806.471L390.069 1024L0 806.471ZM175.088 700.08L390.069 824.2L605.05 691.027L442.948 597.437L361.896 550.642V503.847V457.052L442.948 410.257L605.05 316.667L390.069 192.548L175.088 316.667V700.08Z" fill="white"/>
</svg>
